<svg xmlns="http://www.w3.org/2000/svg" xmlns:xlink="http://www.w3.org/1999/xlink" xmlns:lucid="lucid" width="721" height="665"><g transform="translate(-639.5 -119.5)" lucid:page-tab-id="0_0"><path d="M640 550a10 10 0 0 1 10-10h180a10 10 0 0 1 10 10v224a10 10 0 0 1-10 10H650a10 10 0 0 1-10-10z" fill="#fff"/><path d="M640 550a10 10 0 0 1 10-10h180a10 10 0 0 1 10 10v30H640z" fill="#ccc"/><path d="M640 580h200v34H640z" fill="#fff"/><path d="M640 613h200v34H640z" fill="#e6e6e6"/><path d="M640 646h200v34H640z" fill="#fff"/><path d="M640 679h200v36H640z" fill="#e6e6e6"/><path d="M640 714h200v36H640z" fill="#fff"/><path d="M640 749h200v25a10 10 0 0 1-10 10H650a10 10 0 0 1-10-10z" fill="#e6e6e6"/><path d="M640.5 580h199-199zM640 550a10 10 0 0 1 10-10h180a10 10 0 0 1 10 10v224a10 10 0 0 1-10 10H650a10 10 0 0 1-10-10z" stroke="#333" fill="none"/><use xlink:href="#a" transform="matrix(1,0,0,1,650,540) translate(11.2 27.61432291666667)"/><use xlink:href="#b" transform="matrix(1,0,0,1,645,582.5) translate(11.2 21.61432291666667)"/><use xlink:href="#c" transform="matrix(1,0,0,1,645,615.5) translate(11.2 21.61432291666667)"/><use xlink:href="#d" transform="matrix(1,0,0,1,645,648.5) translate(11.2 21.61432291666667)"/><use xlink:href="#e" transform="matrix(1,0,0,1,645,681.5) translate(11.2 23.067013888888887)"/><use xlink:href="#f" transform="matrix(1,0,0,1,645,716.5) translate(11.2 23.067013888888887)"/><use xlink:href="#g" transform="matrix(1,0,0,1,645,751.5) translate(11.2 23.067013888888887)"/><path d="M640 130a10 10 0 0 1 10-10h180a10 10 0 0 1 10 10v333a10 10 0 0 1-10 10H650a10 10 0 0 1-10-10z" fill="#fff"/><path d="M640 130a10 10 0 0 1 10-10h180a10 10 0 0 1 10 10v30H640z" fill="#ccc"/><path d="M640 160h200v34H640z" fill="#fff"/><path d="M640 193h200v36H640z" fill="#e6e6e6"/><path d="M640 228h200v36H640z" fill="#fff"/><path d="M640 263h200v36H640z" fill="#e6e6e6"/><path d="M640 298h200v36H640z" fill="#fff"/><path d="M640 333h200v36H640z" fill="#e6e6e6"/><path d="M640 368h200v36H640z" fill="#fff"/><path d="M640 403h200v36H640z" fill="#e6e6e6"/><path d="M640 438h200v25a10 10 0 0 1-10 10H650a10 10 0 0 1-10-10z" fill="#fff"/><path d="M640.5 160h199-199zM640 130a10 10 0 0 1 10-10h180a10 10 0 0 1 10 10v333a10 10 0 0 1-10 10H650a10 10 0 0 1-10-10z" stroke="#333" fill="none"/><use xlink:href="#h" transform="matrix(1,0,0,1,650,120) translate(11.2 27.61432291666667)"/><use xlink:href="#i" transform="matrix(1,0,0,1,645,162.5) translate(11.2 21.61432291666667)"/><use xlink:href="#j" transform="matrix(1,0,0,1,645,195.5) translate(11.2 20.155555555555555)"/><use xlink:href="#k" transform="matrix(1,0,0,1,645,230.5) translate(11.2 20.155555555555555)"/><use xlink:href="#l" transform="matrix(1,0,0,1,645,265.5) translate(11.2 23.067013888888887)"/><use xlink:href="#m" transform="matrix(1,0,0,1,645,300.5) translate(11.2 23.067013888888887)"/><use xlink:href="#n" transform="matrix(1,0,0,1,645,335.5) translate(11.2 23.067013888888887)"/><use xlink:href="#o" transform="matrix(1,0,0,1,645,370.5) translate(11.2 23.067013888888887)"/><use xlink:href="#f" transform="matrix(1,0,0,1,645,405.5) translate(11.2 23.067013888888887)"/><use xlink:href="#g" transform="matrix(1,0,0,1,645,440.5) translate(11.2 23.067013888888887)"/><path d="M1160 414a10 10 0 0 1 10-10h180a10 10 0 0 1 10 10v146a10 10 0 0 1-10 10h-180a10 10 0 0 1-10-10z" fill="#fff"/><path d="M1160 414a10 10 0 0 1 10-10h180a10 10 0 0 1 10 10v30h-200z" fill="#ccc"/><path d="M1160 444h200v34h-200z" fill="#fff"/><path d="M1160 477h200v34h-200z" fill="#e6e6e6"/><path d="M1160 510h200v31h-200z" fill="#fff"/><path d="M1160 540h200v20a10 10 0 0 1-10 10h-180a10 10 0 0 1-10-10z" fill="#e6e6e6"/><path d="M1160.5 444h199-199zM1160 414a10 10 0 0 1 10-10h180a10 10 0 0 1 10 10v146a10 10 0 0 1-10 10h-180a10 10 0 0 1-10-10z" stroke="#333" fill="none"/><use xlink:href="#p" transform="matrix(1,0,0,1,1170,404) translate(11.2 27.61432291666667)"/><use xlink:href="#q" transform="matrix(1,0,0,1,1165,446.5) translate(11.2 21.61432291666667)"/><use xlink:href="#r" transform="matrix(1,0,0,1,1165,479.5) translate(11.2 21.61432291666667)"/><use xlink:href="#s" transform="matrix(1,0,0,1,1165,512.5) translate(0 18.589501953125)"/><use xlink:href="#t" transform="matrix(1,0,0,1,1165,542.5) translate(0 18.589501953125)"/><path d="M860.5 298.95H988a12 12 0 0 1 12 12v170.58a12 12 0 0 0 12 12h128.68M840.5 298.95h20m0 10v-20M1159.05 493.53h-20m20-10l-20 10m20 10l-20-10" stroke="#3a414a" stroke-width="2" fill="none"/><path d="M860.5 662.5H988a12 12 0 0 0 12-12V505.53a12 12 0 0 1 12-12h128.68M840.5 662.5h20m0 10v-20M1159.05 493.53h-20m20-10l-20 10m20 10l-20-10" stroke="#3a414a" stroke-width="2" fill="none"/><defs><path fill="#333" d="M-4 418l255-1536h174l-30 179h9c47-68 143-193 355-193 246 0 401 170 401 447 0 348-211 709-568 709-219 0-274-140-300-202h-17l-99 596H-4zm572-555c267 0 411-296 411-543 0-170-78-291-250-291-269 0-405 284-405 542 0 177 81 292 244 292" id="u"/><path fill="#333" d="M535 24C259 24 94-144 94-427c0-392 272-715 610-715 216 0 356 119 356 305 0 244-237 344-790 350-18 199 49 349 276 352 142 0 260-66 317-173l167 47C947-85 756 24 535 24zM294-623c447-4 586-57 586-218 0-85-78-141-194-141-220 0-342 177-392 359" id="v"/><path fill="#333" d="M66 0l185-1118h174l-28 172h12c78-136 219-209 411-185l-30 181c-211-47-398 67-428 250L246 0H66" id="w"/><path fill="#333" d="M65 0l186-1118h175l-31 195c80-148 212-215 337-215 153 0 236 96 255 228 75-143 223-228 382-228 199 0 341 131 298 390L1543 0h-181l126-756c27-162-65-218-177-218-160 0-274 111-297 250L894 0H714l128-773c21-127-57-201-174-201-136 0-277 97-307 277L245 0H65" id="x"/><path fill="#333" d="M66 0l185-1118h180L246 0H66zm307-1301c-71 0-117-55-106-119s74-119 145-119c65 0 117 50 106 118s-78 120-145 120" id="y"/><path fill="#333" d="M451 24C217 22 71-78 61-277l174-29c11 123 90 172 219 172 161 0 280-83 297-181 11-71-30-117-135-143l-179-44c-195-48-280-153-253-316 31-186 223-314 455-314 233 4 337 107 366 275l-165 30c-18-80-65-152-204-152-138 0-256 75-272 174-13 77 32 118 158 149l162 40c195 48 278 154 252 313C904-113 708 24 451 24" id="z"/><path fill="#333" d="M528 24C258 24 94-156 94-433c0-355 229-699 603-699 270 0 436 178 436 458 0 359-234 698-605 698zm4-161c275 0 420-287 420-533 0-170-77-301-260-301-271 0-418 288-418 536 0 168 77 298 258 298" id="A"/><path fill="#333" d="M356-664L245 0H65l186-1118h173l-32 197c96-152 219-211 366-211 232 0 366 145 319 428L960 0H779l117-701c29-174-48-269-198-269-165 0-310 115-342 306" id="B"/><g id="a"><use transform="matrix(0.008072916666666667,0,0,0.008072916666666667,0,0)" xlink:href="#u"/><use transform="matrix(0.008072916666666667,0,0,0.008072916666666667,10.131510416666668,0)" xlink:href="#v"/><use transform="matrix(0.008072916666666667,0,0,0.008072916666666667,19.64947916666667,0)" xlink:href="#w"/><use transform="matrix(0.008072916666666667,0,0,0.008072916666666667,26.14010416666667,0)" xlink:href="#x"/><use transform="matrix(0.008072916666666667,0,0,0.008072916666666667,40.62291666666667,0)" xlink:href="#y"/><use transform="matrix(0.008072916666666667,0,0,0.008072916666666667,44.63515625,0)" xlink:href="#z"/><use transform="matrix(0.008072916666666667,0,0,0.008072916666666667,53.35390625,0)" xlink:href="#z"/><use transform="matrix(0.008072916666666667,0,0,0.008072916666666667,62.07265625,0)" xlink:href="#y"/><use transform="matrix(0.008072916666666667,0,0,0.008072916666666667,66.08489583333333,0)" xlink:href="#A"/><use transform="matrix(0.008072916666666667,0,0,0.008072916666666667,76.00651041666667,0)" xlink:href="#B"/><use transform="matrix(0.008072916666666667,0,0,0.008072916666666667,85.7828125,0)" xlink:href="#z"/></g><path fill="#333" d="M492 24C248 24 94-147 94-425c0-352 212-707 569-707 222 0 274 136 303 198h12l92-556h181L1004 0H829l30-173h-19C792-103 700 24 492 24zm32-161c268 0 407-295 407-549 0-175-80-285-247-285-266 0-408 283-408 536 0 174 79 298 248 298" id="C"/><g id="b"><use transform="matrix(0.008072916666666667,0,0,0.008072916666666667,0,0)" xlink:href="#y"/><use transform="matrix(0.008072916666666667,0,0,0.008072916666666667,4.012239583333334,0)" xlink:href="#C"/></g><path fill="#333" d="M481 24C202 24 45-202 104-557s293-575 571-575c216 0 263 132 291 193h15l29-179h181L1006 0H831l28-173h-21C788-107 693 24 481 24zm56-161c204 0 342-174 383-422s-41-412-245-412c-215 0-350 183-388 412-39 235 39 422 250 422" id="D"/><g id="c"><use transform="matrix(0.008072916666666667,0,0,0.008072916666666667,0,0)" xlink:href="#B"/><use transform="matrix(0.008072916666666667,0,0,0.008072916666666667,9.776302083333334,0)" xlink:href="#D"/><use transform="matrix(0.008072916666666667,0,0,0.008072916666666667,19.923958333333335,0)" xlink:href="#x"/><use transform="matrix(0.008072916666666667,0,0,0.008072916666666667,34.40677083333334,0)" xlink:href="#v"/></g><path fill="#333" d="M492-1490L245 0H65l247-1490h180" id="E"/><path fill="#333" d="M443 14C219 14 87-123 134-408l117-710h180L317-423c-28 171 49 275 206 275s300-105 332-300l110-670h181L961 0H787l35-209C722-47 590 14 443 14" id="F"/><path fill="#333" d="M456 442C197 442 73 327 25 209l155-84c33 60 86 160 280 160 184 0 332-89 363-272l37-218-16 4C793-134 707-18 498-18 260-18 96-170 96-443c0-341 216-689 568-689 222 0 274 139 301 198l21-5 30-179h175L999 35c-48 288-275 407-543 407zm75-620c274 0 401-267 401-512 0-170-80-281-247-281-260 0-408 269-408 518 0 167 83 275 254 275" id="G"/><g id="d"><use transform="matrix(0.008072916666666667,0,0,0.008072916666666667,0,0)" xlink:href="#z"/><use transform="matrix(0.008072916666666667,0,0,0.008072916666666667,8.71875,0)" xlink:href="#E"/><use transform="matrix(0.008072916666666667,0,0,0.008072916666666667,12.722916666666666,0)" xlink:href="#F"/><use transform="matrix(0.008072916666666667,0,0,0.008072916666666667,22.50729166666667,0)" xlink:href="#G"/></g><path d="M492 24C248 24 94-147 94-425c0-352 212-707 569-707 222 0 274 136 303 198h12l92-556h181L1004 0H829l30-173h-19C792-103 700 24 492 24zm32-161c268 0 407-295 407-549 0-175-80-285-247-285-266 0-408 283-408 536 0 174 79 298 248 298" id="H"/><path d="M535 24C259 24 94-144 94-427c0-392 272-715 610-715 216 0 356 119 356 305 0 244-237 344-790 350-18 199 49 349 276 352 142 0 260-66 317-173l167 47C947-85 756 24 535 24zM294-623c447-4 586-57 586-218 0-85-78-141-194-141-220 0-342 177-392 359" id="I"/><path d="M451 24C217 22 71-78 61-277l174-29c11 123 90 172 219 172 161 0 280-83 297-181 11-71-30-117-135-143l-179-44c-195-48-280-153-253-316 31-186 223-314 455-314 233 4 337 107 366 275l-165 30c-18-80-65-152-204-152-138 0-256 75-272 174-13 77 32 118 158 149l162 40c195 48 278 154 252 313C904-113 708 24 451 24" id="J"/><path d="M528 24C258 24 94-156 94-433c0-354 228-699 603-699 222 0 381 120 410 314l-176 39c-14-114-95-192-238-192-272 0-419 288-419 536 0 167 76 298 258 298 155 0 277-90 329-211l166 58C935-93 745 24 528 24" id="K"/><path d="M66 0l185-1118h174l-28 172h12c78-136 219-209 411-185l-30 181c-211-47-398 67-428 250L246 0H66" id="L"/><path d="M66 0l185-1118h180L246 0H66zm307-1301c-71 0-117-55-106-119s74-119 145-119c65 0 117 50 106 118s-78 120-145 120" id="M"/><path d="M-4 418l255-1536h174l-30 179h9c47-68 143-193 355-193 246 0 401 170 401 447 0 348-211 709-568 709-219 0-274-140-300-202h-17l-99 596H-4zm572-555c267 0 411-296 411-543 0-170-78-291-250-291-269 0-405 284-405 542 0 177 81 292 244 292" id="N"/><path d="M691-1118l-25 154H437L325-290c-17 103 16 144 108 144 23 0 63-6 94-12L538-6c-36 12-87 20-136 20-196 0-290-109-260-290l114-688H88l25-154h169l44-266h180l-44 266h229" id="O"/><path d="M528 24C258 24 94-156 94-433c0-355 229-699 603-699 270 0 436 178 436 458 0 359-234 698-605 698zm4-161c275 0 420-287 420-533 0-170-77-301-260-301-271 0-418 288-418 536 0 168 77 298 258 298" id="P"/><path d="M356-664L245 0H65l186-1118h173l-32 197c96-152 219-211 366-211 232 0 366 145 319 428L960 0H779l117-701c29-174-48-269-198-269-165 0-310 115-342 306" id="Q"/><g id="e"><use transform="matrix(0.008680555555555556,0,0,0.008680555555555556,0,0)" xlink:href="#H"/><use transform="matrix(0.008680555555555556,0,0,0.008680555555555556,10.894097222222223,0)" xlink:href="#I"/><use transform="matrix(0.008680555555555556,0,0,0.008680555555555556,21.12847222222222,0)" xlink:href="#J"/><use transform="matrix(0.008680555555555556,0,0,0.008680555555555556,30.503472222222218,0)" xlink:href="#K"/><use transform="matrix(0.008680555555555556,0,0,0.008680555555555556,40.66840277777778,0)" xlink:href="#L"/><use transform="matrix(0.008680555555555556,0,0,0.008680555555555556,47.64756944444445,0)" xlink:href="#M"/><use transform="matrix(0.008680555555555556,0,0,0.008680555555555556,51.96180555555556,0)" xlink:href="#N"/><use transform="matrix(0.008680555555555556,0,0,0.008680555555555556,62.85590277777778,0)" xlink:href="#O"/><use transform="matrix(0.008680555555555556,0,0,0.008680555555555556,68.68923611111111,0)" xlink:href="#M"/><use transform="matrix(0.008680555555555556,0,0,0.008680555555555556,73.00347222222223,0)" xlink:href="#P"/><use transform="matrix(0.008680555555555556,0,0,0.008680555555555556,83.671875,0)" xlink:href="#Q"/></g><path d="M481 24C202 24 45-202 104-557s293-575 571-575c216 0 263 132 291 193h15l29-179h181L1006 0H831l28-173h-21C788-107 693 24 481 24zm56-161c204 0 342-174 383-422s-41-412-245-412c-215 0-350 183-388 412-39 235 39 422 250 422" id="R"/><path d="M841 0l-27 166h-934L-93 0h934" id="S"/><g id="f"><use transform="matrix(0.008680555555555556,0,0,0.008680555555555556,0,0)" xlink:href="#K"/><use transform="matrix(0.008680555555555556,0,0,0.008680555555555556,10.164930555555555,0)" xlink:href="#L"/><use transform="matrix(0.008680555555555556,0,0,0.008680555555555556,16.571180555555557,0)" xlink:href="#I"/><use transform="matrix(0.008680555555555556,0,0,0.008680555555555556,26.805555555555557,0)" xlink:href="#R"/><use transform="matrix(0.008680555555555556,0,0,0.008680555555555556,37.71701388888889,0)" xlink:href="#O"/><use transform="matrix(0.008680555555555556,0,0,0.008680555555555556,43.376736111111114,0)" xlink:href="#I"/><use transform="matrix(0.008680555555555556,0,0,0.008680555555555556,53.611111111111114,0)" xlink:href="#H"/><use transform="matrix(0.008680555555555556,0,0,0.008680555555555556,64.50520833333334,0)" xlink:href="#S"/><use transform="matrix(0.008680555555555556,0,0,0.008680555555555556,72.61284722222223,0)" xlink:href="#R"/><use transform="matrix(0.008680555555555556,0,0,0.008680555555555556,83.52430555555556,0)" xlink:href="#O"/></g><path d="M443 14C219 14 87-123 134-408l117-710h180L317-423c-28 171 49 275 206 275s300-105 332-300l110-670h181L961 0H787l35-209C722-47 590 14 443 14" id="T"/><g id="g"><use transform="matrix(0.008680555555555556,0,0,0.008680555555555556,0,0)" xlink:href="#T"/><use transform="matrix(0.008680555555555556,0,0,0.008680555555555556,10.520833333333334,0)" xlink:href="#N"/><use transform="matrix(0.008680555555555556,0,0,0.008680555555555556,21.414930555555557,0)" xlink:href="#H"/><use transform="matrix(0.008680555555555556,0,0,0.008680555555555556,32.30902777777778,0)" xlink:href="#R"/><use transform="matrix(0.008680555555555556,0,0,0.008680555555555556,43.220486111111114,0)" xlink:href="#O"/><use transform="matrix(0.008680555555555556,0,0,0.008680555555555556,48.880208333333336,0)" xlink:href="#I"/><use transform="matrix(0.008680555555555556,0,0,0.008680555555555556,59.114583333333336,0)" xlink:href="#S"/><use transform="matrix(0.008680555555555556,0,0,0.008680555555555556,67.22222222222223,0)" xlink:href="#R"/><use transform="matrix(0.008680555555555556,0,0,0.008680555555555556,78.13368055555556,0)" xlink:href="#O"/></g><g id="h"><use transform="matrix(0.008072916666666667,0,0,0.008072916666666667,0,0)" xlink:href="#F"/><use transform="matrix(0.008072916666666667,0,0,0.008072916666666667,9.784375,0)" xlink:href="#z"/><use transform="matrix(0.008072916666666667,0,0,0.008072916666666667,18.503125,0)" xlink:href="#v"/><use transform="matrix(0.008072916666666667,0,0,0.008072916666666667,28.021093750000002,0)" xlink:href="#w"/><use transform="matrix(0.008072916666666667,0,0,0.008072916666666667,34.25338541666667,0)" xlink:href="#z"/></g><g id="i"><use transform="matrix(0.008072916666666667,0,0,0.008072916666666667,0,0)" xlink:href="#y"/><use transform="matrix(0.008072916666666667,0,0,0.008072916666666667,4.012239583333334,0)" xlink:href="#C"/></g><path d="M67-158c22-48 132-52 116 29L158 0h-32l25-140c3-38-53-32-70-12C52-117 51-52 38 0H6l36-190h30" id="U"/><path d="M165-48c-4 18 1 34 23 27l-3 20c-29 8-62 0-52-35h-2C116-14 99 4 63 4 30 4 8-16 8-49c0-68 71-67 138-67 10-26 0-56-31-54-26 1-42 9-47 31l-32-5c8-67 160-71 144 15-5 28-9 54-15 81zM42-50c3 52 80 24 89-6 7-12 7-24 11-38-47 1-103-4-100 44" id="V"/><path d="M248-111c6-24 9-61-24-58-72 9-57 108-77 169h-31l26-142c3-37-50-30-64-10C52-115 50-51 37 0H6l36-190h30c-1 10-6 24-4 32 13-43 101-52 105 5 13-22 29-41 61-41 90 0 28 129 23 194h-31" id="W"/><path d="M111-194c62-3 86 47 72 106H45c-7 38 6 69 45 68 27-1 43-14 53-32l24 11C152-15 129 4 87 4 38 3 12-23 12-71c0-70 32-119 99-123zm44 81c14-66-71-72-95-28-4 8-8 17-11 28h106" id="X"/><g id="j"><use transform="matrix(0.04938271604938272,0,0,0.04938271604938272,0,0)" xlink:href="#U"/><use transform="matrix(0.04938271604938272,0,0,0.04938271604938272,9.876543209876544,0)" xlink:href="#V"/><use transform="matrix(0.04938271604938272,0,0,0.04938271604938272,19.75308641975309,0)" xlink:href="#W"/><use transform="matrix(0.04938271604938272,0,0,0.04938271604938272,34.51851851851852,0)" xlink:href="#X"/></g><path d="M50-231l6-30h32l-6 30H50zM6 0l37-190h31L37 0H6" id="Y"/><path d="M6 0l50-261h32L37 0H6" id="Z"/><g id="k"><use transform="matrix(0.04938271604938272,0,0,0.04938271604938272,0,0)" xlink:href="#X"/><use transform="matrix(0.04938271604938272,0,0,0.04938271604938272,9.876543209876544,0)" xlink:href="#W"/><use transform="matrix(0.04938271604938272,0,0,0.04938271604938272,24.641975308641978,0)" xlink:href="#V"/><use transform="matrix(0.04938271604938272,0,0,0.04938271604938272,34.51851851851852,0)" xlink:href="#Y"/><use transform="matrix(0.04938271604938272,0,0,0.04938271604938272,38.41975308641975,0)" xlink:href="#Z"/></g><path d="M317 0L163-1118h191c34 329 72 559 91 925 130-352 253-602 392-925h192c32 328 66 558 83 922 132-350 256-600 396-922h191L1175 0H996c-36-314-76-577-98-915C766-585 635-312 496 0H317" id="aa"/><g id="l"><use transform="matrix(0.008680555555555556,0,0,0.008680555555555556,0,0)" xlink:href="#N"/><use transform="matrix(0.008680555555555556,0,0,0.008680555555555556,10.894097222222223,0)" xlink:href="#R"/><use transform="matrix(0.008680555555555556,0,0,0.008680555555555556,21.805555555555557,0)" xlink:href="#J"/><use transform="matrix(0.008680555555555556,0,0,0.008680555555555556,31.180555555555557,0)" xlink:href="#J"/><use transform="matrix(0.008680555555555556,0,0,0.008680555555555556,40.55555555555556,0)" xlink:href="#aa"/><use transform="matrix(0.008680555555555556,0,0,0.008680555555555556,54.782986111111114,0)" xlink:href="#P"/><use transform="matrix(0.008680555555555556,0,0,0.008680555555555556,65.45138888888889,0)" xlink:href="#L"/><use transform="matrix(0.008680555555555556,0,0,0.008680555555555556,71.85763888888889,0)" xlink:href="#H"/></g><path d="M492-1490L245 0H65l247-1490h180" id="ab"/><g id="m"><use transform="matrix(0.008680555555555556,0,0,0.008680555555555556,0,0)" xlink:href="#L"/><use transform="matrix(0.008680555555555556,0,0,0.008680555555555556,6.40625,0)" xlink:href="#P"/><use transform="matrix(0.008680555555555556,0,0,0.008680555555555556,17.07465277777778,0)" xlink:href="#ab"/><use transform="matrix(0.008680555555555556,0,0,0.008680555555555556,21.380208333333336,0)" xlink:href="#I"/></g><path d="M65 0l186-1118h175l-31 195c80-148 212-215 337-215 153 0 236 96 255 228 75-143 223-228 382-228 199 0 341 131 298 390L1543 0h-181l126-756c27-162-65-218-177-218-160 0-274 111-297 250L894 0H714l128-773c21-127-57-201-174-201-136 0-277 97-307 277L245 0H65" id="ac"/><path d="M389 0L147-1118h188c55 314 135 617 168 951 141-329 323-637 482-951h205L578 0H389" id="ad"/><path d="M780-1118l-24 146H497L317 116C281 334 148 448-56 448c-43 0-82-5-117-17l45-161c143 34 239 0 264-153L316-972H89l24-146h227l13-77c43-287 254-417 541-345l-50 154c-23-5-81-8-121-8-107 0-167 63-189 196l-13 80h259" id="ae"/><g id="n"><use transform="matrix(0.008680555555555556,0,0,0.008680555555555556,0,0)" xlink:href="#I"/><use transform="matrix(0.008680555555555556,0,0,0.008680555555555556,10.234375,0)" xlink:href="#ac"/><use transform="matrix(0.008680555555555556,0,0,0.008680555555555556,25.807291666666668,0)" xlink:href="#R"/><use transform="matrix(0.008680555555555556,0,0,0.008680555555555556,36.71875,0)" xlink:href="#M"/><use transform="matrix(0.008680555555555556,0,0,0.008680555555555556,41.032986111111114,0)" xlink:href="#ab"/><use transform="matrix(0.008680555555555556,0,0,0.008680555555555556,45.33854166666667,0)" xlink:href="#S"/><use transform="matrix(0.008680555555555556,0,0,0.008680555555555556,52.03993055555556,0)" xlink:href="#ad"/><use transform="matrix(0.008680555555555556,0,0,0.008680555555555556,61.68402777777778,0)" xlink:href="#I"/><use transform="matrix(0.008680555555555556,0,0,0.008680555555555556,71.91840277777777,0)" xlink:href="#L"/><use transform="matrix(0.008680555555555556,0,0,0.008680555555555556,78.89756944444443,0)" xlink:href="#M"/><use transform="matrix(0.008680555555555556,0,0,0.008680555555555556,83.21180555555554,0)" xlink:href="#ae"/><use transform="matrix(0.008680555555555556,0,0,0.008680555555555556,89.84374999999999,0)" xlink:href="#M"/><use transform="matrix(0.008680555555555556,0,0,0.008680555555555556,94.1579861111111,0)" xlink:href="#I"/><use transform="matrix(0.008680555555555556,0,0,0.008680555555555556,104.3923611111111,0)" xlink:href="#H"/><use transform="matrix(0.008680555555555556,0,0,0.008680555555555556,115.28645833333333,0)" xlink:href="#S"/><use transform="matrix(0.008680555555555556,0,0,0.008680555555555556,123.39409722222221,0)" xlink:href="#R"/><use transform="matrix(0.008680555555555556,0,0,0.008680555555555556,134.30555555555554,0)" xlink:href="#O"/></g><path d="M592 24c-216 0-276-130-305-197h-18L239 0H65l247-1490h180l-92 551h15c51-63 134-193 344-193 246 0 401 170 401 447 0 348-211 709-568 709zm-24-161c267 0 411-296 411-543 0-170-78-291-250-291-269 0-405 284-405 542 0 177 81 292 244 292" id="af"/><path d="M65 0l247-1490h180L349-625h22l559-493h223L606-638 1003 0H772L449-523 313-412 245 0H65" id="ag"/><g id="o"><use transform="matrix(0.008680555555555556,0,0,0.008680555555555556,0,0)" xlink:href="#L"/><use transform="matrix(0.008680555555555556,0,0,0.008680555555555556,6.40625,0)" xlink:href="#I"/><use transform="matrix(0.008680555555555556,0,0,0.008680555555555556,16.640625,0)" xlink:href="#ac"/><use transform="matrix(0.008680555555555556,0,0,0.008680555555555556,32.21354166666667,0)" xlink:href="#I"/><use transform="matrix(0.008680555555555556,0,0,0.008680555555555556,42.44791666666667,0)" xlink:href="#ac"/><use transform="matrix(0.008680555555555556,0,0,0.008680555555555556,58.02083333333334,0)" xlink:href="#af"/><use transform="matrix(0.008680555555555556,0,0,0.008680555555555556,68.91493055555557,0)" xlink:href="#I"/><use transform="matrix(0.008680555555555556,0,0,0.008680555555555556,79.14930555555557,0)" xlink:href="#L"/><use transform="matrix(0.008680555555555556,0,0,0.008680555555555556,85.85069444444446,0)" xlink:href="#S"/><use transform="matrix(0.008680555555555556,0,0,0.008680555555555556,93.95833333333334,0)" xlink:href="#O"/><use transform="matrix(0.008680555555555556,0,0,0.008680555555555556,99.61805555555556,0)" xlink:href="#P"/><use transform="matrix(0.008680555555555556,0,0,0.008680555555555556,110.28645833333334,0)" xlink:href="#ag"/><use transform="matrix(0.008680555555555556,0,0,0.008680555555555556,119.65277777777779,0)" xlink:href="#I"/><use transform="matrix(0.008680555555555556,0,0,0.008680555555555556,129.88715277777777,0)" xlink:href="#Q"/></g><path fill="#333" d="M841 0l-27 166h-934L-93 0h934" id="ah"/><g id="p"><use transform="matrix(0.008072916666666667,0,0,0.008072916666666667,0,0)" xlink:href="#u"/><use transform="matrix(0.008072916666666667,0,0,0.008072916666666667,10.131510416666668,0)" xlink:href="#v"/><use transform="matrix(0.008072916666666667,0,0,0.008072916666666667,19.64947916666667,0)" xlink:href="#w"/><use transform="matrix(0.008072916666666667,0,0,0.008072916666666667,26.14010416666667,0)" xlink:href="#x"/><use transform="matrix(0.008072916666666667,0,0,0.008072916666666667,40.62291666666667,0)" xlink:href="#y"/><use transform="matrix(0.008072916666666667,0,0,0.008072916666666667,44.63515625,0)" xlink:href="#z"/><use transform="matrix(0.008072916666666667,0,0,0.008072916666666667,53.35390625,0)" xlink:href="#z"/><use transform="matrix(0.008072916666666667,0,0,0.008072916666666667,62.07265625,0)" xlink:href="#y"/><use transform="matrix(0.008072916666666667,0,0,0.008072916666666667,66.08489583333333,0)" xlink:href="#A"/><use transform="matrix(0.008072916666666667,0,0,0.008072916666666667,76.00651041666667,0)" xlink:href="#B"/><use transform="matrix(0.008072916666666667,0,0,0.008072916666666667,85.7828125,0)" xlink:href="#ah"/><use transform="matrix(0.008072916666666667,0,0,0.008072916666666667,93.32291666666667,0)" xlink:href="#F"/><use transform="matrix(0.008072916666666667,0,0,0.008072916666666667,103.10729166666667,0)" xlink:href="#z"/><use transform="matrix(0.008072916666666667,0,0,0.008072916666666667,111.82604166666667,0)" xlink:href="#v"/><use transform="matrix(0.008072916666666667,0,0,0.008072916666666667,121.34401041666666,0)" xlink:href="#w"/></g><g id="q"><use transform="matrix(0.008072916666666667,0,0,0.008072916666666667,0,0)" xlink:href="#F"/><use transform="matrix(0.008072916666666667,0,0,0.008072916666666667,9.784375,0)" xlink:href="#z"/><use transform="matrix(0.008072916666666667,0,0,0.008072916666666667,18.503125,0)" xlink:href="#v"/><use transform="matrix(0.008072916666666667,0,0,0.008072916666666667,28.021093750000002,0)" xlink:href="#w"/><use transform="matrix(0.008072916666666667,0,0,0.008072916666666667,34.25338541666667,0)" xlink:href="#ah"/><use transform="matrix(0.008072916666666667,0,0,0.008072916666666667,42.350520833333334,0)" xlink:href="#y"/><use transform="matrix(0.008072916666666667,0,0,0.008072916666666667,46.36276041666667,0)" xlink:href="#C"/></g><g id="r"><use transform="matrix(0.008072916666666667,0,0,0.008072916666666667,0,0)" xlink:href="#u"/><use transform="matrix(0.008072916666666667,0,0,0.008072916666666667,10.131510416666668,0)" xlink:href="#v"/><use transform="matrix(0.008072916666666667,0,0,0.008072916666666667,19.64947916666667,0)" xlink:href="#w"/><use transform="matrix(0.008072916666666667,0,0,0.008072916666666667,26.14010416666667,0)" xlink:href="#x"/><use transform="matrix(0.008072916666666667,0,0,0.008072916666666667,40.62291666666667,0)" xlink:href="#y"/><use transform="matrix(0.008072916666666667,0,0,0.008072916666666667,44.63515625,0)" xlink:href="#z"/><use transform="matrix(0.008072916666666667,0,0,0.008072916666666667,53.35390625,0)" xlink:href="#z"/><use transform="matrix(0.008072916666666667,0,0,0.008072916666666667,62.07265625,0)" xlink:href="#D"/><use transform="matrix(0.008072916666666667,0,0,0.008072916666666667,72.2203125,0)" xlink:href="#A"/><use transform="matrix(0.008072916666666667,0,0,0.008072916666666667,82.14192708333334,0)" xlink:href="#ah"/><use transform="matrix(0.008072916666666667,0,0,0.008072916666666667,90.2390625,0)" xlink:href="#y"/><use transform="matrix(0.008072916666666667,0,0,0.008072916666666667,94.25130208333334,0)" xlink:href="#C"/></g><path d="M613 24c-304 0-509-231-509-576 0-350 205-580 509-580 216 0 392 114 453 309l-173 49c-33-115-133-197-280-197-223 0-326 196-326 419 0 220 103 415 326 415 150 0 252-85 285-206l172 49C1010-95 832 24 613 24" id="ai"/><path d="M158 0v-1118h174v172h12c41-113 157-188 290-188 26 0 70 2 91 3v181c-11-2-60-10-108-10-161 0-279 109-279 260V0H158" id="aj"/><path d="M628 24c-324 0-524-230-524-574 0-343 198-582 503-582 237 0 487 146 487 559v75H286c9 234 145 362 343 362 132 0 231-58 273-172l174 48C1024-91 857 24 628 24zM287-650h624c-17-190-120-322-304-322-192 0-309 151-320 322" id="ak"/><path d="M471 26C259 26 90-98 90-318c0-256 228-303 435-329 202-27 287-16 287-108 0-139-79-219-234-219-161 0-248 86-283 164l-173-57c86-203 278-265 451-265 150 0 419 46 419 395V0H815v-152h-12C765-73 660 26 471 26zm31-159c199 0 310-134 310-271v-155c-30 35-226 55-295 64-131 17-246 59-246 186 0 116 97 176 231 176" id="al"/><path d="M598-1118v154H368v674c0 100 37 144 132 144 23 0 62-6 92-12L629-6c-37 13-88 20-134 20-193 0-307-107-307-290v-688H20v-154h168v-266h180v266h230" id="am"/><path d="M577 24c-279 0-473-224-473-580 0-354 195-576 474-576 218 0 287 134 324 193h14v-551h180V0H922v-173h-20C865-111 790 24 577 24zm27-161c203 0 314-172 314-421 0-247-108-413-314-413-212 0-317 181-317 413 0 235 108 421 317 421" id="an"/><path d="M934 0v166H0V0h934" id="ao"/><g id="s"><use transform="matrix(0.008173828125000001,0,0,0.008173828125000001,0,0)" xlink:href="#ai"/><use transform="matrix(0.008173828125000001,0,0,0.008173828125000001,9.563378906250001,0)" xlink:href="#aj"/><use transform="matrix(0.008173828125000001,0,0,0.008173828125000001,15.587490234375002,0)" xlink:href="#ak"/><use transform="matrix(0.008173828125000001,0,0,0.008173828125000001,25.510517578125004,0)" xlink:href="#al"/><use transform="matrix(0.008173828125000001,0,0,0.008173828125000001,34.910419921875004,0)" xlink:href="#am"/><use transform="matrix(0.008173828125000001,0,0,0.008173828125000001,40.223408203125004,0)" xlink:href="#ak"/><use transform="matrix(0.008173828125000001,0,0,0.008173828125000001,49.982958984375,0)" xlink:href="#an"/><use transform="matrix(0.008173828125000001,0,0,0.008173828125000001,60.232939453125006,0)" xlink:href="#ao"/><use transform="matrix(0.008173828125000001,0,0,0.008173828125000001,67.86729492187499,0)" xlink:href="#al"/><use transform="matrix(0.008173828125000001,0,0,0.008173828125000001,77.267197265625,0)" xlink:href="#am"/></g><path d="M537 14c-226 0-379-139-379-422v-710h180v695c0 172 97 275 253 275 160 0 281-109 281-300v-670h181V0H879v-209C806-46 684 14 537 14" id="ap"/><path d="M158 418v-1536h174v179h20c37-59 106-193 324-193 279 0 474 222 474 576 0 356-194 580-473 580-213 0-288-135-325-197h-14v591H158zm492-555c209 0 317-186 317-421 0-232-105-413-317-413-206 0-314 166-314 413 0 249 111 421 314 421" id="aq"/><g id="t"><use transform="matrix(0.008173828125000001,0,0,0.008173828125000001,0,0)" xlink:href="#ap"/><use transform="matrix(0.008173828125000001,0,0,0.008173828125000001,9.898505859375001,0)" xlink:href="#aq"/><use transform="matrix(0.008173828125000001,0,0,0.008173828125000001,20.148486328125003,0)" xlink:href="#an"/><use transform="matrix(0.008173828125000001,0,0,0.008173828125000001,30.398466796875006,0)" xlink:href="#al"/><use transform="matrix(0.008173828125000001,0,0,0.008173828125000001,39.798369140625006,0)" xlink:href="#am"/><use transform="matrix(0.008173828125000001,0,0,0.008173828125000001,45.111357421875006,0)" xlink:href="#ak"/><use transform="matrix(0.008173828125000001,0,0,0.008173828125000001,54.870908203125005,0)" xlink:href="#an"/><use transform="matrix(0.008173828125000001,0,0,0.008173828125000001,65.12088867187501,0)" xlink:href="#ao"/><use transform="matrix(0.008173828125000001,0,0,0.008173828125000001,72.75524414062501,0)" xlink:href="#al"/><use transform="matrix(0.008173828125000001,0,0,0.008173828125000001,82.15514648437501,0)" xlink:href="#am"/></g></defs></g></svg>