<?xml version="1.0" encoding="utf-8"?>
<!-- Generator: Adobe Illustrator 25.2.1, SVG Export Plug-In . SVG Version: 6.00 Build 0)  -->
<svg version="1.1" id="Camada_1" xmlns="http://www.w3.org/2000/svg" xmlns:xlink="http://www.w3.org/1999/xlink" x="0px" y="0px"
	 viewBox="0 0 413 157" style="enable-background:new 0 0 413 157;" xml:space="preserve">
<style type="text/css">
	.st0{fill:#203667;}
	.st1{font-family:'MyriadPro-Regular';}
	.st2{font-size:7.5627px;}
</style>
<g>
	<g>
		<g>
			<path class="st0" d="M71.7,23.5c0-1.2-1-2.3-2.3-2.3h-1.2c-1.2,0-2.3,1-2.3,2.3v41.6c0,1.2,1,2.3,2.3,2.3h1.2
				c1.2,0,2.3-1,2.3-2.3V23.5z"/>
			<path class="st0" d="M128,80H86.4c-1.2,0-2.3,1-2.3,2.3v1.2c0,1.2,1,2.3,2.3,2.3H128c1.2,0,2.3-1,2.3-2.3v-1.2
				C130.3,81,129.3,80,128,80"/>
			<path class="st0" d="M51.2,80.1H9.7c-1.2,0-2.3,1-2.3,2.3v1.2c0,1.2,1,2.3,2.3,2.3h41.6c1.2,0,2.3-1,2.3-2.3v-1.2
				C53.5,81.1,52.5,80.1,51.2,80.1"/>
			<path class="st0" d="M81.9,40.1h-1.2c-1.2,0-2.2,1-2.2,2.2v28.5c0,1.2,1,2.2,2.2,2.2h28.5c1.2,0,2.2-1,2.2-2.2v-1.3
				c0-1.2-1-2.2-2.2-2.2H84.1v-25C84.1,41.1,83.1,40.1,81.9,40.1"/>
			<path class="st0" d="M53.5,67.3H28.4c-1.2,0-2.2,1-2.2,2.2v1.2c0,1.2,1,2.2,2.2,2.2h28.5c1.2,0,2.2-1,2.2-2.2V42.3
				c0-1.2-1-2.2-2.2-2.2h-1.2c-1.2,0-2.2,1-2.2,2.2V67.3z"/>
			<path class="st0" d="M71.7,100.6c0-1.2-1-2.3-2.3-2.3h-1.2c-1.2,0-2.3,1-2.3,2.3v41.6c0,1.2,1,2.3,2.3,2.3h1.2
				c1.2,0,2.3-1,2.3-2.3V100.6z"/>
			<path class="st0" d="M59.2,94.8c0-1.2-1-2.2-2.2-2.2H28.4c-1.2,0-2.2,1-2.2,2.2V96c0,1.2,1,2.2,2.2,2.2h25.1v25.1
				c0,1.2,1,2.2,2.2,2.2h1.2c1.2,0,2.2-1,2.2-2.2L59.2,94.8L59.2,94.8z"/>
			<path class="st0" d="M109.2,92.7H80.7c-1.2,0-2.2,1-2.2,2.2v28.5c0,1.2,1,2.2,2.2,2.2h1.2c1.2,0,2.2-1,2.2-2.2V98.3h25.1
				c1.2,0,2.2-1,2.2-2.2v-1.2C111.4,93.7,110.4,92.7,109.2,92.7"/>
			<path class="st0" d="M251.1,119.8c0,3.8,1.4,5.8,4.1,5.8c2.6,0,4.1-2,4.1-5.6c0-3.8-1.4-5.7-4.1-5.7
				C252.5,114.2,251.1,116.2,251.1,119.8 M261.6,119.9c0,4.3-2.3,6.7-6.4,6.7s-6.4-2.4-6.4-6.8c0-4.1,2.4-6.6,6.4-6.6
				C259.2,113.2,261.6,115.6,261.6,119.9"/>
			<path class="st0" d="M201.9,119.8c0.6,0,1.1-0.1,1.5-0.3c0.8-0.4,1.2-1.4,1.2-2.4c0-1.7-1-2.7-2.6-2.7h-1.3v5.5h1.2V119.8z
				 M200.7,125.8c0,0.2,0,0.4,0.1,0.6h-2.3c0.1-0.3,0.1-0.4,0.1-0.6V114c0-0.2,0-0.4-0.1-0.6h4.1c2.6,0,4.2,1.3,4.2,3.6
				c0,2.4-1.8,3.8-4.7,3.8h-1.4L200.7,125.8L200.7,125.8z"/>
			<path class="st0" d="M212.2,119.8c0,3.8,1.4,5.8,4.1,5.8c2.6,0,4.1-2,4.1-5.6c0-3.8-1.4-5.7-4.1-5.7
				C213.6,114.2,212.2,116.2,212.2,119.8 M222.7,119.9c0,4.3-2.3,6.7-6.4,6.7c-4.1,0-6.4-2.4-6.4-6.8c0-4.1,2.4-6.6,6.4-6.6
				C220.4,113.2,222.7,115.6,222.7,119.9"/>
			<path class="st0" d="M230,119.6c1.5,0,2.6-1.1,2.6-2.6c0-0.8-0.3-1.6-0.9-2.1c-0.4-0.4-1-0.6-1.8-0.6H229v5.3L230,119.6
				L230,119.6z M229,125.8c0,0.2,0,0.4,0.1,0.6h-2.3c0.1-0.2,0.1-0.4,0.1-0.6V114c0-0.2,0-0.4-0.1-0.6h4c2.4,0,4.1,1.4,4.1,3.5
				c0,1.4-0.7,2.5-2.1,3c-0.4,0.2-0.7,0.3-1.4,0.4l4.3,5.6c0.3,0.3,0.3,0.4,0.5,0.5h-2.8c-0.1-0.2-0.1-0.4-0.3-0.6l-3.9-5.5v5.5H229
				z"/>
			<path class="st0" d="M246.9,113.4v1.2c-0.4-0.1-0.6-0.1-0.8-0.1h-2.8v11.3c0,0.3,0,0.4,0.1,0.6H241c0.1-0.2,0.1-0.4,0.1-0.6
				v-11.3h-2.8c-0.3,0-0.5,0-0.8,0.1v-1.2H246.9z"/>
			<path class="st0" d="M278.6,121.4l-2.1-5.9l-2,5.9H278.6z M272.8,125.8c-0.1,0.2-0.1,0.3-0.1,0.5h-1.2c0.1-0.2,0.2-0.4,0.3-0.5
				l4.2-12c0.1-0.2,0.1-0.3,0.1-0.5h1.9c0,0.2,0,0.3,0.1,0.4l4.4,12c0.1,0.2,0.1,0.3,0.3,0.5h-2.5c0-0.2,0-0.3-0.1-0.5l-1.2-3.5
				h-4.8L272.8,125.8z"/>
			<path class="st0" d="M286.1,126.4c0.1-0.3,0.1-0.4,0.1-0.6V114c0-0.2,0-0.4-0.1-0.6h2.3c-0.1,0.2-0.1,0.4-0.1,0.6v11.3h3.7
				c0.4,0,0.4,0,0.7-0.1v1.1L286.1,126.4L286.1,126.4z"/>
			<path class="st0" d="M302.9,113.4v1.1c-0.3-0.1-0.3-0.1-0.6-0.1h-3.9v5h3.8c0.4,0,0.4,0,0.7-0.1v1.1c-0.3-0.1-0.3-0.1-0.7-0.1
				h-3.8v5.1h3.8c0.2,0,0.4,0,0.7-0.1v1.1h-6.7c0.1-0.2,0.1-0.4,0.1-0.6V114c0-0.3,0-0.4-0.1-0.6H302.9z"/>
			<path class="st0" d="M316.8,115.5c-1.3-0.9-2.3-1.2-3.5-1.2s-2.3,0.4-3.1,1.3c-0.9,1-1.3,2.4-1.3,4.4c0,3.5,1.5,5.6,4.2,5.6
				c0.8,0,1.3-0.1,2-0.5V120c0-0.3,0-0.4-0.1-0.6h2.3c-0.1,0.3-0.1,0.4-0.1,0.6v5c0,0.4,0,0.5,0.1,0.8c-2.4,0.8-3,0.9-4.5,0.9
				c-2,0-3.4-0.5-4.5-1.6c-1.2-1.2-1.8-2.9-1.8-5c0-4.2,2.5-6.7,6.6-6.7c1.3,0,2.2,0.2,3.6,0.7L316.8,115.5L316.8,115.5z"/>
			<path class="st0" d="M324.9,119.6c1.5,0,2.6-1.1,2.6-2.6c0-0.8-0.3-1.6-0.9-2.1c-0.4-0.4-1-0.6-1.8-0.6h-0.9v5.3L324.9,119.6
				L324.9,119.6z M324,125.8c0,0.2,0,0.4,0.1,0.6h-2.3c0.1-0.2,0.1-0.4,0.1-0.6V114c0-0.2,0-0.4-0.1-0.6h4c2.4,0,4.1,1.4,4.1,3.5
				c0,1.4-0.7,2.5-2.1,3c-0.4,0.2-0.7,0.3-1.4,0.4l4.3,5.6c0.3,0.3,0.3,0.4,0.5,0.5h-2.8c-0.1-0.2-0.1-0.4-0.3-0.6l-3.9-5.5v5.5H324
				z"/>
			<path class="st0" d="M340.9,113.4v1.1c-0.3-0.1-0.4-0.1-0.6-0.1h-3.9v5h3.8c0.4,0,0.4,0,0.7-0.1v1.1c-0.3-0.1-0.3-0.1-0.7-0.1
				h-3.8v5.1h3.8c0.2,0,0.4,0,0.7-0.1v1.1h-6.7c0.1-0.2,0.1-0.4,0.1-0.6V114c0-0.3,0-0.4-0.1-0.6H340.9z"/>
			<path class="st0" d="M148.8,92.7c2.9,2.6,4.6,3.3,7.2,3.3c3.4,0,5.8-2.2,5.8-5.3c0-1.8-0.7-3.1-2.2-4.2c-0.6-0.5-2-1.1-4.4-2.3
				c-5.2-2.5-7.2-4.8-7.2-8.6c0-5,4.1-8.4,10.1-8.4c2.5,0,4.4,0.5,7.1,1.6l-1,3.2c-2.5-1.8-4.3-2.5-6.4-2.5c-2.9,0-5,1.9-5,4.5
				c0,2.5,1.2,3.7,6.3,6c3.2,1.5,4.8,2.6,5.9,4c1.1,1.5,1.7,3.2,1.7,5.1c0,2.9-1.4,5.8-3.7,7.5c-1.6,1.2-4.1,1.9-6.8,1.9
				c-3.1,0-5.3-0.6-8.5-2.3L148.8,92.7z"/>
			<path class="st0" d="M185.3,86.4l-4.9-13.8l-4.8,13.8H185.3z M171.8,96.9c-0.1,0.5-0.2,0.7-0.2,1.3h-2.9c0.3-0.5,0.5-0.8,0.6-1.3
				l10-28.1c0.1-0.5,0.2-0.7,0.2-1.1h4.4c0,0.4,0.1,0.6,0.2,1l10.3,28.2c0.2,0.5,0.3,0.7,0.7,1.3h-5.9c0-0.5,0-0.7-0.2-1.3l-2.9-8.3
				h-11.3L171.8,96.9z"/>
			<path class="st0" d="M201.7,96.7c0,0.6,0,0.9,0.2,1.5h-2.7c0.1-0.6,0.2-1,0.2-1.5V69.2c0-0.5,0-0.9-0.2-1.5h4.8
				c0.1,0.4,0.1,0.5,0.5,1.1l16.7,23.3V69.2c0-0.5,0-0.9-0.2-1.5h2.7c-0.1,0.5-0.2,0.7-0.2,1.5v27.7c0,0.7,0,0.9,0.2,1.4h-4.4
				l-0.2-0.4c-0.1-0.2-0.3-0.5-0.5-0.7l-17-23.7L201.7,96.7L201.7,96.7z"/>
			<path class="st0" d="M249.1,67.7v2.8c-0.9-0.2-1.3-0.2-1.9-0.2h-6.6v26.5c0,0.6,0,0.9,0.2,1.5h-5.4c0.1-0.5,0.2-0.9,0.2-1.5V70.3
				H229c-0.6,0-1.1,0-1.9,0.2v-2.8H249.1z"/>
			<path class="st0" d="M263.7,86.4l-4.9-13.8L254,86.4H263.7z M250.3,96.9c-0.1,0.5-0.2,0.7-0.2,1.3h-2.9c0.3-0.5,0.5-0.8,0.6-1.3
				l10-28.1c0.1-0.5,0.2-0.7,0.2-1.1h4.4c0,0.4,0.1,0.6,0.2,1l10.3,28.2c0.2,0.5,0.3,0.7,0.7,1.3h-5.9c0-0.5,0-0.7-0.2-1.3l-2.9-8.3
				h-11.3L250.3,96.9z"/>
			<path class="st0" d="M312.5,72.7c-2.7-2.2-4.5-3-7.3-3c-6.3,0-10.1,5-10.1,13.1c0,8,4,13.2,10.2,13.2c2.7,0,4.6-0.8,7.1-3.2v4
				c-2.9,1.4-4.8,1.8-8,1.8c-9.6,0-14.9-5.6-14.9-15.9c0-9.9,5.6-15.5,15.6-15.5c2.8,0,4.8,0.4,7.2,1.4v4.1H312.5z"/>
			<path class="st0" d="M332.1,86.4l-4.9-13.8l-4.8,13.8H332.1z M318.6,96.9c-0.1,0.5-0.2,0.7-0.2,1.3h-2.9c0.3-0.5,0.5-0.8,0.6-1.3
				l10-28.1c0.1-0.5,0.2-0.7,0.2-1.1h4.4c0,0.4,0.1,0.6,0.2,1l10.3,28.2c0.2,0.5,0.3,0.7,0.7,1.3H336c0-0.5,0-0.7-0.2-1.3l-2.9-8.3
				h-11.3L318.6,96.9z"/>
			<path class="st0" d="M345.2,92.7c2.9,2.6,4.6,3.3,7.2,3.3c3.4,0,5.8-2.2,5.8-5.3c0-1.8-0.7-3.1-2.2-4.2c-0.6-0.5-2-1.1-4.4-2.3
				c-5.2-2.5-7.2-4.8-7.2-8.6c0-5,4.1-8.4,10.1-8.4c2.5,0,4.4,0.5,7.1,1.6l-1,3.2c-2.5-1.8-4.3-2.5-6.4-2.5c-2.9,0-5,1.9-5,4.5
				c0,2.5,1.2,3.7,6.3,6c3.2,1.5,4.8,2.6,5.9,4c1.1,1.5,1.7,3.2,1.7,5.1c0,2.9-1.4,5.8-3.7,7.5c-1.6,1.2-4.1,1.9-6.8,1.9
				c-3.1,0-5.3-0.6-8.5-2.3L345.2,92.7z"/>
			<path class="st0" d="M381.6,86.4l-4.9-13.8l-4.8,13.8H381.6z M368.2,96.9c-0.1,0.5-0.2,0.7-0.2,1.3h-2.9c0.3-0.5,0.5-0.8,0.6-1.3
				l10-28.1c0.1-0.5,0.2-0.7,0.2-1.1h4.4c0,0.4,0.1,0.6,0.2,1l10.3,28.2c0.2,0.5,0.3,0.7,0.7,1.3h-5.9c0-0.5,0-0.7-0.2-1.3l-2.9-8.3
				h-11.3L368.2,96.9z"/>
			<text transform="matrix(1 0 0 1 198.7157 85.046)" class="st0 st1 st2">.</text>
		</g>
	</g>
</g>
</svg>
